<svg id="Capa_1" data-name="Capa 1" xmlns="http://www.w3.org/2000/svg" viewBox="0 0 972.73 799.48"><title>bruja</title><path d="M677.5,39.9c-.3.5,1.1,3.1,3,5.7,8.6,12,14.9,22,17.2,27.2,3,6.8,6.7,20.9,8.4,31.7,1.9,11.9,1.6,38-.6,50-2,11.6-6,25.1-7.8,26.2-.7.4-14.2,1.2-30.2,1.8-28.7,1.1-34.2,1.9-35.2,5.1-.6,1.8,6.2,8.8,11.9,12.1,7.5,4.6,19,7.3,33.6,8,6.7.3,12.5.9,12.7,1.3.7,1.1-5.9,5.4-13.7,9-8.4,3.9-16.9,4.7-31.8,3-6.1-.7-11.4-1-11.7-.6-1.7,1.6,7.6,15.6,14,21.3,3.4,2.9,9,5.3,12.8,5.3a7.53,7.53,0,0,1,3.5,1.4c1.8,1.4,1.8,1.5-1.1,2.6a41.81,41.81,0,0,1-8.7,2c-6.5.9-7,1.2-23.6,10.4-17.7,9.9-25.7,12.2-32.9,9.5-1.5-.5-6.6-5-11.3-9.8-6.5-6.7-10.2-9.5-15.3-12-7.8-3.7-24.5-7.7-36.1-8.7-7.4-.6-9.5-.3-24.6,3.6-20.7,5.4-34.9,6.4-44.5,3.2a159.54,159.54,0,0,1-32.3-15.1c-20.9-12.8-33.1-17.1-47.9-17.1-10.6,0-17.9,1.7-29.3,7-11.1,5.1-12.1,5.3-17.2,4-3.5-1-6.2-3.1-14.8-12-5.8-6-11.8-11.4-13.3-11.9-4.9-1.9-10.1-1.2-16.6,2-7.9,4-22.7,17.8-25.2,23.6-1,2.3-3.6,12.4-5.9,22.5-13.2,58-19.8,78-31.4,94.3-5.5,7.6-9.4,11.1-16.5,14.3-4.6,2.1-6.4,2.4-13.1,2l-7.7-.5-5.7-5.6c-12.3-12.3-20.1-12.7-25.6-1.1-3.2,6.9-5.6,19-9.5,49.1-7.1,53.5-13.1,73.6-25.7,86.9-7.4,7.9-8.1,8.1-35.5,11.9C76,505.8,71,508.5,71,515.1c0,7.4,13.1,26,31.5,44.5,9,9.1,11,10.6,20.5,15.2,13.7,6.7,21.2,8.6,31.6,7.9,9.4-.5,16.1-3.3,24-9.9,8.8-7.3,10.1-9.1,35.1-47.8,12.6-19.4,24.8-29.8,37.6-31.8,9.1-1.4,20.9.9,31.7,6.3,4.1,2.1,4.9,2.2,7.7,1,8.4-3.5,8.5-11.4.9-38.1-6.6-23.4-8-31-7.4-41.1,1.1-18.6,12-26.6,38.5-28.3,21.4-1.4,22.2-2.2,25.9-28.2.8-5.5,3.8-8.8,7.9-8.8s12.2,3.1,19.6,7.6c5.5,3.3,5.7,3.4,10.2,2,6.8-2,11-5.8,21.7-19.7,14.1-18.1,19.5-22.1,30-22,7.3,0,12.4,2,23.4,9.3,7.4,4.9,9.6,5.8,13.3,5.8,7.7,0,13-4,25.8-19.3,2.6-3.1,5.8-6,7.1-6.3s5.5.3,9.3,1.5c11.4,3.5,22.1,14.8,22.1,23.4,0,4-4.4,11.6-13.6,23.4-14.1,18-33.9,35.1-55.5,47.9-5.7,3.4-16.2,9.6-23.4,13.8-25.9,15.2-38,28.5-44.5,48.9-2.6,7.9-3.9,24.3-2.8,33.7,2.9,24.6,22.7,57.5,52.6,87.7,5.8,5.9,7.7,8.4,6.9,9.1-2.8,2.3-97.2,29.7-118.7,34.4-26.2,5.9-69.5.2-116.2-15.3-25.3-8.4-88.2-32.3-122.3-46.6C84,568,68.8,562,67.8,562c-2.3,0-2.3.8.2,7,2.8,7.2,5.4,10.2,12.6,15.2,3.5,2.3,6.4,4.8,6.4,5.5s-2.2,1.9-5,2.8c-4.8,1.6-5,1.8-5,5.5,0,2.7,2.2,8.1,8,19.6,6.8,13.8,9.1,17.3,17,26.2,4.9,5.7,9,10.7,9,11.2,0,1.3-7.4,5-10,5-4.4,0-2.8,2.5,14.3,21.6a151.09,151.09,0,0,1,22.1,32.1c3.3,6.6,3.6,7.8,3.6,16,0,12.8,1,15.5,7.8,20.8,8.1,6.4,12.4,7.1,33.4,5.6,19.5-1.4,31.5-4,58.3-13,29.6-9.8,33.6-12,65.8-35.9,27.3-20.2,53.1-37.6,61.2-41.3,7.7-3.5,34.2-11.1,59-16.9,9.9-2.3,25.3-5.9,34.2-8.1s17-3.9,18.1-3.9c2.9,0,6.9,4.3,17.4,18.8,27.5,38.1,47.4,60.9,57.3,65.7,6.2,3.1,15.5,4.3,27.3,3.5,4.6-.3,8.6-.3,8.8-.1s.4,4.2.4,8.8V742h-3.5c-4.7,0-7.6,1.5-10.4,5.5-4.3,6.3-5.1,10.1-4.4,21.5.4,7.8.1,12.6-1.1,18.4-2.1,10.4-2.1,19.2,0,20,3.6,1.4,4.3.5,6.9-8.1,5.4-17.7,10.2-23.6,14.8-18.5,2.2,2.4,2.1,6.5-.4,19.3-2.7,13.5-2.4,14.2,9.6,22.7,14.4,10.1,16.6,11.4,23.9,13.9,10.8,3.7,12.6,3.5,15.3-1.2,4.6-8.1,2.6-11.8-11.4-21.5-8.8-6-9.5-7.4-10-19.5-.3-8.3.2-12.6,2.7-24.8,4.9-23.8,4.2-26.5-7-26.9l-6.4-.3.3-19.4c.4-26.3,2.4-33.5,11.8-42.6,8-7.6,24.5-14.9,42-18.5,11.2-2.3,13.5-.2,13.7,11.9l.1,7.6-3.6-.3c-4.7-.4-9.5,3.6-13.5,11.2l-2.8,5.4,1.2,17.4c.7,11.2.8,20.2.2,25.6-1,9.6-.7,11,2.7,11.8,3.6.9,5.2-1.3,6.4-8.6,1.1-6.7,4.4-14,6.4-14s5.1,4.1,8.3,10.5c6.2,12.2,15.4,19.2,28.9,22,8.3,1.7,30.9,3,35.2,2l3.1-.7v-7.2c0-9.8-.8-10.4-14.9-12.2-13-1.6-16.5-2.9-22.4-8.3-6.4-5.9-8.9-12.4-9.5-24.2-.4-8.2-.2-10.2,1.7-14.3,3.5-7.9,2.8-9.4-5.1-11-3.3-.7-3.4-1.6-1.8-14.6,2.2-17.9,1.7-17.6,27-16.4,37.8,1.7,37.1,2.3,26.2-20.4-11.3-23.7-15.2-36.6-15.2-50.6,0-8.8,2-15.9,6-21.4,2.6-3.6,3.5-4.2,6.8-4.2,6.2,0,10,3.6,21.1,19.9,11.9,17.3,20,26,28,29.7,10.2,4.9,15.9,3.5,21.7-5.3,7.2-10.9,10.8-25.1,12.3-48.9.9-14.7,1.9-18,6.3-22,2.9-2.7,8.7-5.6,15.8-7.9,3-1,7.9-2.9,10.9-4.2,9.4-4.2,32-12.3,43.3-15.6,8.2-2.4,11.3-2.9,12.6-2.1.9.6,3.2,3.9,5.1,7.2,3.7,6.7,5.1,7.4,7.5,4,1.4-2,1.9-2.1,4.7-1.1,2.6,1,3.6.9,7-.9,2.4-1.2,4.2-3,4.5-4.4a2.7,2.7,0,0,1,3-2.4c1.7,0,2.4-.6,2.4-2s1.1-2.5,3.4-3.4c1.8-.8,3.6-1.8,4-2.4s-.7-3.9-2.4-7.4-3-7-3-8c0-3.9,5.9-6.5,41.2-18.2,19.4-6.4,36.8-12.5,38.6-13.6,3.7-2.3,3.9-3.9,1.2-9.8-1.4-3-2.5-4.2-4.1-4.2-2.2,0-13.4,3.4-57.6,17.6-31.7,10.2-32.9,10.3-45.2,4.2l-8.5-4.3-11.1.2c-10.9.1-18.2,1.4-36.7,6.4-12.2,3.2-13.2,2.8-18.5-8.4-5.1-10.5-5-10.4-26.2-14.7s-65.2-15.4-73.4-18.6c-15.4-6-27.8-18.4-34.5-34.7-5.1-12.1-5.8-15.7-4.2-22.1s.9-17.5-1.3-22.8a42.59,42.59,0,0,0-6.2-8.8c-4.2-4.7-4.6-5.7-4.2-8.7,1.4-8.1,11.9-23.6,19.5-28.4,8-5.1,16.2-3.3,26.5,6,1.6,1.5,5.9,7.8,9.7,14.1,8.3,14,12.3,18,18.1,18,3.3,0,9.6-6.9,10.5-11.4.6-3.3.1-5.1-3.2-11.7l-3.8-7.9,2.2-3.9a17,17,0,0,0,2.2-5.5c0-2.2-3.2-2-6.4.5l-2.6,2-3-2.1c-8.1-5.8-8-18,.2-18a13.87,13.87,0,0,1,6.2,2.5c3.9,2.6,5.6,2.5,5.6-.3.1-.9,1.6-4.2,3.4-7.2,4.6-7.7,6.1-7.4,11.2,2.3,5.4,10.4,6.4,11.3,10,9.5,2.4-1.1,3-2,3.2-5.6.6-7.7-5.7-23.7-12.1-31-4.6-5.2-7.7-9.3-7.7-10.3,0-.4,2-1.7,4.5-2.8,8.6-3.8,8.5-9.6-.6-18.3-3.2-3.2-5.9-6.2-5.9-6.6,0-1.1,3-2.4,16.5-7.4,6-2.2,13.7-5.4,17-7.1,18.7-9.4,31.5-23.5,22.2-24.5-1.5-.2-10,1.5-19,3.7-18.6,4.6-29.8,6.4-37.7,5.9l-5.5-.3-4.7-14C761.7,102.2,739,70.9,701,50.2,689.7,44,678.1,39,677.5,39.9ZM665.9,443.6q9.6,2.85,41.1,34.3c20.6,20.6,30.6,34.7,31.7,44.5.7,5.5-.8,8.1-5.8,10.7-4.8,2.4-9.5,2.8-11.4.8-.8-.8-3.2-6.5-5.4-12.8-10.6-30.1-29.9-48.2-51.6-48.1a75.22,75.22,0,0,0-12,1.5c-8.6,1.9-15.9.7-20-3.1-2.5-2.3-2.7-3.1-2.3-7.9C631.5,448.3,649,438.5,665.9,443.6Z" transform="translate(-66.1 -39.79)"/></svg>