<?xml version="1.0"?>
<svg width="1188" height="1280" xmlns="http://www.w3.org/2000/svg" xmlns:svg="http://www.w3.org/2000/svg" preserveAspectRatio="xMidYMid meet">
 <metadata>Created by potrace 1.15, written by Peter Selinger 2001-2017</metadata>
 <g class="layer">
  <title>Layer 1</title>
  <g fill="#000000" id="svg_1" transform="translate(0 1280) scale(0.1 -0.1)">
   <path d="m6095,12794c-198,-13 -453,-38 -603,-59c-1126,-163 -2195,-626 -3084,-1337c-421,-337 -806,-732 -1124,-1154c-1228,-1632 -1603,-3781 -999,-5729c229,-739 608,-1463 1079,-2060c217,-276 606,-686 846,-891c851,-730 1826,-1210 2910,-1433c1222,-251 2509,-135 3663,330c760,307 1422,733 2037,1312c179,168 584,575 560,561c-8,-4 -164,-112 -346,-239c-182,-127 -404,-276 -495,-330c-695,-419 -1453,-666 -2271,-741c-213,-20 -666,-22 -873,-5c-1056,88 -2054,475 -2870,1115c-253,198 -580,513 -774,745c-717,859 -1128,1838 -1237,2951c-24,239 -24,710 0,950c109,1113 516,2094 1226,2950c124,150 451,479 609,614c1306,1110 3051,1526 4706,1122c618,-152 1180,-398 1702,-747c260,-174 408,-293 758,-611c288,-261 356,-321 339,-298c-141,186 -502,645 -578,735c-458,539 -999,997 -1605,1357c-819,486 -1731,780 -2711,873c-156,15 -729,27 -865,19z" fill="#7f7f7f" id="svg_2"/>
  </g>
 </g>
</svg>